<svg width="105" height="41" viewBox="0 0 105 41" fill="none" xmlns="http://www.w3.org/2000/svg">
<path d="M48.0896 19.2259C48.0896 18.8886 48.0229 18.5723 47.8895 18.2771C47.771 17.9679 47.5932 17.7008 47.3562 17.4759C47.1191 17.251 46.8376 17.0753 46.5117 16.9488C46.2005 16.8082 45.8598 16.738 45.4894 16.738C45.1338 16.738 44.8004 16.8012 44.4893 16.9277C44.1782 17.0542 43.9041 17.2299 43.667 17.4548C43.4448 17.6797 43.2596 17.9468 43.1114 18.256C42.9781 18.5512 42.9114 18.8675 42.9114 19.2048C42.9114 19.5422 42.9781 19.8584 43.1114 20.1536C43.2448 20.4488 43.43 20.7088 43.667 20.9337C43.9041 21.1446 44.1782 21.3203 44.4893 21.4608C44.8152 21.5874 45.156 21.6506 45.5116 21.6506C45.8672 21.6506 46.2005 21.5874 46.5117 21.4608C46.8228 21.3343 47.0895 21.1586 47.3117 20.9337C47.5488 20.7088 47.734 20.4488 47.8673 20.1536C48.0155 19.8584 48.0896 19.5492 48.0896 19.2259ZM43.0225 30H39V13.7861H43.0225V14.988C43.8818 13.9618 45.0523 13.4488 46.5339 13.4488C47.3488 13.4488 48.1044 13.6034 48.8007 13.9127C49.5119 14.2078 50.1267 14.6155 50.6453 15.1355C51.1638 15.6556 51.5639 16.2671 51.8454 16.9699C52.1417 17.6727 52.2899 18.4247 52.2899 19.2259C52.2899 20.0271 52.1417 20.7721 51.8454 21.4608C51.5639 22.1496 51.1638 22.754 50.6453 23.2741C50.1416 23.7942 49.5415 24.2018 48.8452 24.497C48.1488 24.7922 47.3932 24.9398 46.5783 24.9398C45.156 24.9398 43.9707 24.4759 43.0225 23.5482V30ZM53.027 24.6024H56.8273V9H53.027V24.6024ZM61.7593 19.1627C61.7593 19.5141 61.8259 19.8444 61.9593 20.1536C62.0926 20.4488 62.2704 20.7088 62.4926 20.9337C62.7297 21.1586 63.0038 21.3343 63.3149 21.4608C63.6409 21.5874 63.989 21.6506 64.3594 21.6506C64.715 21.6506 65.0484 21.5874 65.3595 21.4608C65.6855 21.3343 65.9596 21.1586 66.1818 20.9337C66.4188 20.7088 66.604 20.4488 66.7373 20.1536C66.8855 19.8584 66.9596 19.5422 66.9596 19.2048C66.9596 18.8675 66.8855 18.5512 66.7373 18.256C66.604 17.9468 66.4188 17.6797 66.1818 17.4548C65.9596 17.2299 65.6855 17.0542 65.3595 16.9277C65.0484 16.8012 64.715 16.738 64.3594 16.738C63.989 16.738 63.6409 16.8012 63.3149 16.9277C63.0038 17.0542 62.7297 17.2299 62.4926 17.4548C62.2704 17.6797 62.0926 17.9398 61.9593 18.2349C61.8259 18.5161 61.7593 18.8253 61.7593 19.1627ZM66.8262 13.7861H70.871V24.6024H66.8262V23.4006C65.967 24.4267 64.8039 24.9398 63.3371 24.9398C62.5075 24.9398 61.7444 24.7992 61.0481 24.5181C60.3517 24.2229 59.7443 23.8153 59.2257 23.2952C58.7072 22.7751 58.2997 22.1637 58.0034 21.4608C57.7219 20.758 57.5812 19.992 57.5812 19.1627C57.5812 18.3896 57.7219 17.6586 58.0034 16.9699C58.2849 16.2671 58.6775 15.6556 59.1813 15.1355C59.685 14.6155 60.2851 14.2078 60.9814 13.9127C61.6778 13.6034 62.4482 13.4488 63.2927 13.4488C64.715 13.4488 65.8929 13.9197 66.8262 14.8614V13.7861ZM72.0525 13.7861H76.0751V15.1566C76.6232 14.5241 77.1788 14.1024 77.7418 13.8916C78.3048 13.6667 78.9642 13.5542 79.7198 13.5542C80.5198 13.5542 81.2014 13.6807 81.7644 13.9337C82.3422 14.1727 82.8311 14.5171 83.2311 14.9669C83.5571 15.3323 83.7793 15.74 83.8978 16.1898C84.0164 16.6396 84.0756 17.1526 84.0756 17.7289V24.6024H80.0531V19.1416C80.0531 18.6074 80.0087 18.1787 79.9198 17.8554C79.8457 17.5181 79.7049 17.251 79.4975 17.0542C79.3197 16.8855 79.1197 16.7661 78.8975 16.6958C78.6752 16.6255 78.4382 16.5904 78.1863 16.5904C77.5048 16.5904 76.9788 16.7871 76.6084 17.1807C76.2528 17.5602 76.0751 18.1084 76.0751 18.8253V24.6024H72.0525V13.7861ZM93.5893 17.6235C93.456 17.0894 93.1819 16.6606 92.767 16.3373C92.3522 16.0141 91.8484 15.8524 91.2558 15.8524C90.6335 15.8524 90.1224 16.007 89.7223 16.3163C89.3371 16.6255 89.0927 17.0612 88.989 17.6235H93.5893ZM88.8778 19.8373C88.8778 21.4819 89.6927 22.3042 91.3225 22.3042C92.1966 22.3042 92.8559 21.9669 93.3004 21.2922H97.1896C96.4043 23.7661 94.4412 25.003 91.3002 25.003C90.3372 25.003 89.4557 24.8695 88.6556 24.6024C87.8555 24.3213 87.1666 23.9277 86.5888 23.4217C86.0258 22.9157 85.5887 22.3112 85.2776 21.6084C84.9664 20.9056 84.8109 20.1185 84.8109 19.247C84.8109 18.3474 84.959 17.5392 85.2554 16.8223C85.5517 16.0914 85.9739 15.4729 86.5221 14.9669C87.0703 14.4608 87.7296 14.0743 88.5 13.8072C89.2853 13.5261 90.1668 13.3855 91.1447 13.3855C92.1077 13.3855 92.9744 13.5261 93.7449 13.8072C94.5153 14.0743 95.1672 14.4679 95.7006 14.988C96.2339 15.508 96.6414 16.1476 96.9229 16.9066C97.2044 17.6516 97.3451 18.495 97.3451 19.4367V19.8373H88.8778ZM98.6884 20.512C98.6884 23.5693 100.489 24.6024 103.067 24.6024H105V21.5452H103.644C102.8 21.5452 102.489 21.25 102.489 20.5542V15.8313H104.978V12.8373H102.489V9.96988H98.6884V12.8373H97.1772V15.8313H98.6884V20.512Z" fill="black"/>
<path d="M52.8122 33.9868V34.637H50.0857V33.9868H52.8122ZM50.9022 38.9803V33.2977C50.9022 33.0116 50.9703 32.7732 51.1063 32.5824C51.2424 32.3917 51.4192 32.2486 51.6365 32.1533C51.8538 32.0579 52.0831 32.0103 52.3246 32.0103C52.5155 32.0103 52.6712 32.0255 52.7918 32.0558C52.9132 32.0861 53.0032 32.1143 53.0625 32.1403L52.8381 32.8035C52.7992 32.7905 52.7436 32.7742 52.674 32.7547C52.6054 32.7352 52.5155 32.7255 52.4033 32.7255C52.1468 32.7255 51.9614 32.7894 51.8471 32.9173C51.7352 33.0452 51.6792 33.2326 51.6792 33.4797V38.9803H50.9022ZM55.3768 39.0843C54.9197 39.0843 54.5191 38.977 54.1742 38.7624C53.8321 38.548 53.5641 38.2478 53.3713 37.862C53.1803 37.4762 53.0848 37.0254 53.0848 36.5096C53.0848 35.9894 53.1803 35.5353 53.3713 35.1475C53.5641 34.7595 53.8321 34.4582 54.1742 34.2437C54.5191 34.0291 54.9197 33.9218 55.3768 33.9218C55.833 33.9218 56.2326 34.0291 56.5747 34.2437C56.9196 34.4582 57.1876 34.7595 57.3786 35.1475C57.5714 35.5353 57.6679 35.9894 57.6679 36.5096C57.6679 37.0254 57.5714 37.4762 57.3786 37.862C57.1876 38.2478 56.9196 38.548 56.5747 38.7624C56.2326 38.977 55.833 39.0843 55.3768 39.0843ZM55.3768 38.3952C55.7236 38.3952 56.0082 38.3074 56.2326 38.1318C56.456 37.9562 56.622 37.7254 56.7296 37.4393C56.8371 37.1532 56.8909 36.8434 56.8909 36.5096C56.8909 36.1758 56.8371 35.8648 56.7296 35.5765C56.622 35.2883 56.456 35.0554 56.2326 34.8776C56.0082 34.6999 55.7236 34.611 55.3768 34.611C55.03 34.611 54.7444 34.6999 54.5201 34.8776C54.2966 35.0554 54.1306 35.2883 54.0231 35.5765C53.9155 35.8648 53.8617 36.1758 53.8617 36.5096C53.8617 36.8434 53.9155 37.1532 54.0231 37.4393C54.1306 37.7254 54.2966 37.9562 54.5201 38.1318C54.7444 38.3074 55.03 38.3952 55.3768 38.3952ZM58.4829 38.9803V33.9868H59.2339V34.7411H59.2867C59.3785 34.494 59.5454 34.2935 59.7874 34.1396C60.0285 33.9857 60.3011 33.9088 60.6034 33.9088C60.6608 33.9088 60.7322 33.9099 60.8175 33.912C60.9038 33.9142 60.9677 33.9175 61.0123 33.9218V34.7021C60.9854 34.6956 60.9251 34.6858 60.8305 34.6728C60.7387 34.6576 60.6414 34.65 60.5375 34.65C60.2918 34.65 60.0721 34.701 59.8792 34.8028C59.6882 34.9025 59.5371 35.0413 59.4249 35.219C59.3155 35.3945 59.2608 35.5949 59.2608 35.8204V38.9803H58.4829ZM61.5621 38.9803V33.9868H62.3131V34.7671H62.3789C62.4837 34.5005 62.6543 34.2935 62.8889 34.1461C63.1244 33.9966 63.4063 33.9218 63.7354 33.9218C64.0692 33.9218 64.3464 33.9966 64.568 34.1461C64.7924 34.2935 64.9667 34.5005 65.0919 34.7671H65.1448C65.2736 34.5092 65.4683 34.3043 65.727 34.1526C65.9866 33.9987 66.2973 33.9218 66.6589 33.9218C67.1113 33.9218 67.4813 34.0616 67.7687 34.3412C68.0561 34.6186 68.1998 35.051 68.1998 35.6383V38.9803H67.4229V35.6383C67.4229 35.2699 67.3209 35.0066 67.1169 34.8484C66.9129 34.6901 66.6728 34.611 66.3955 34.611C66.0404 34.611 65.765 34.7172 65.5694 34.9296C65.3738 35.1399 65.2764 35.4064 65.2764 35.7293V38.9803H64.4864V35.5603C64.4864 35.2764 64.3928 35.0478 64.2064 34.8744C64.0191 34.6988 63.779 34.611 63.4851 34.611C63.2829 34.611 63.0947 34.6641 62.9186 34.7703C62.7452 34.8765 62.6052 35.0239 62.4976 35.2125C62.3919 35.3988 62.3391 35.6144 62.3391 35.8594V38.9803H61.5621ZM71.3699 39.0843C70.8831 39.0843 70.4631 38.9781 70.1089 38.7657C69.7585 38.5512 69.4868 38.2521 69.2958 37.8685C69.1076 37.4827 69.013 37.0341 69.013 36.5226C69.013 36.0111 69.1076 35.5603 69.2958 35.1702C69.4868 34.7779 69.7529 34.4723 70.0932 34.2534C70.4353 34.0323 70.8349 33.9218 71.2911 33.9218C71.5544 33.9218 71.815 33.9651 72.0718 34.0518C72.3286 34.1385 72.5623 34.2794 72.7728 34.4745C72.9842 34.6674 73.152 34.9231 73.2772 35.2418C73.4023 35.5603 73.4644 35.9526 73.4644 36.4186V36.7437H69.5656V36.0804H72.6745C72.6745 35.7987 72.617 35.5473 72.5029 35.3263C72.3908 35.1052 72.2313 34.9307 72.0227 34.8028C71.8159 34.675 71.572 34.611 71.2911 34.611C70.9814 34.611 70.7144 34.6869 70.4882 34.8386C70.2638 34.9882 70.0913 35.1832 69.9708 35.4237C69.8503 35.6643 69.79 35.9222 69.79 36.1975V36.6396C69.79 37.0167 69.8558 37.3364 69.9875 37.5986C70.121 37.8587 70.3064 38.057 70.5438 38.1936C70.7812 38.328 71.0565 38.3952 71.3699 38.3952C71.5748 38.3952 71.7593 38.367 71.9235 38.3106C72.0903 38.2521 72.2341 38.1654 72.3546 38.0505C72.4751 37.9335 72.5688 37.7883 72.6346 37.6149L73.3856 37.823C73.3068 38.0744 73.1733 38.2955 72.9869 38.4862C72.8006 38.6747 72.5697 38.822 72.2953 38.9282C72.0208 39.0323 71.713 39.0843 71.3699 39.0843ZM74.2757 38.9803V33.9868H75.0268V34.7411H75.0787C75.1714 34.494 75.3383 34.2935 75.5794 34.1396C75.8214 33.9857 76.093 33.9088 76.3962 33.9088C76.4528 33.9088 76.5242 33.9099 76.6104 33.912C76.6957 33.9142 76.7606 33.9175 76.8042 33.9218V34.7021C76.7782 34.6956 76.718 34.6858 76.6234 34.6728C76.5307 34.6576 76.4333 34.65 76.3304 34.65C76.0847 34.65 75.865 34.701 75.6721 34.8028C75.4811 34.9025 75.329 35.0413 75.2178 35.219C75.1074 35.3945 75.0527 35.5949 75.0527 35.8204V38.9803H74.2757ZM78.1319 32.3223V38.9803H77.3549V32.3223H78.1319ZM79.6841 40.8528C79.5524 40.8528 79.4356 40.842 79.3317 40.8203C79.2288 40.8008 79.1574 40.7813 79.1185 40.7618L79.316 40.0856C79.5042 40.1333 79.6711 40.1507 79.8157 40.1377C79.9613 40.1247 80.0892 40.0607 80.2014 39.9458C80.3155 39.8331 80.4193 39.65 80.5139 39.3964L80.6595 39.0063L78.7884 33.9868H79.6321L81.0276 37.966H81.0804L82.4768 33.9868H83.3196L81.1731 39.7085C81.0758 39.9664 80.9562 40.1799 80.8134 40.3489C80.6715 40.5201 80.5055 40.6469 80.3164 40.7293C80.13 40.8116 79.9196 40.8528 79.6841 40.8528Z" fill="#666666"/>
<path d="M88.2957 38.9798H86.0111V32.3218H88.342C89.0115 32.3218 89.5863 32.4551 90.0675 32.7217C90.5506 32.986 90.9215 33.3664 91.1802 33.8628C91.4389 34.3591 91.5687 34.9529 91.5687 35.6443C91.5687 36.3378 91.4379 36.9338 91.1774 37.4323C90.9178 37.9307 90.5441 38.3133 90.0546 38.5799C89.5669 38.8465 88.9809 38.9798 88.2957 38.9798ZM87.2322 37.9361H88.2363C88.7064 37.9361 89.0986 37.8516 89.412 37.6827C89.7263 37.5114 89.9619 37.2568 90.1204 36.9186C90.278 36.5784 90.3568 36.1536 90.3568 35.6443C90.3568 35.1349 90.278 34.7123 90.1204 34.3764C89.9619 34.0383 89.7282 33.7858 89.4185 33.6189C89.1116 33.4499 88.7296 33.3653 88.2725 33.3653H87.2322V37.9361ZM92.3586 38.9798V32.3218H94.8871C95.4054 32.3218 95.8403 32.4172 96.1907 32.6079C96.5449 32.7986 96.811 33.0608 96.9909 33.3946C97.1736 33.7262 97.2644 34.1034 97.2644 34.5259C97.2644 34.9529 97.1736 35.3322 96.9909 35.6638C96.8092 35.9954 96.5403 36.2565 96.1842 36.4472C95.8291 36.6358 95.3906 36.7301 94.8704 36.7301H93.195V35.7386H94.7063C95.0095 35.7386 95.2571 35.6866 95.4499 35.5825C95.6437 35.4785 95.7865 35.3354 95.8783 35.1534C95.9728 34.9713 96.0201 34.7622 96.0201 34.5259C96.0201 34.2898 95.9728 34.0817 95.8783 33.9018C95.7865 33.7219 95.6428 33.5821 95.4471 33.4824C95.2543 33.3805 95.0048 33.3296 94.6998 33.3296H93.5798V38.9798H92.3586ZM99.0938 36.0539V38.9798H97.9023V32.3218H99.0678V34.8348H99.1271C99.2449 34.553 99.4285 34.3309 99.677 34.1684C99.9273 34.0037 100.245 33.9213 100.632 33.9213C100.982 33.9213 101.289 33.9939 101.55 34.1391C101.811 34.2843 102.014 34.4967 102.156 34.7762C102.301 35.0558 102.373 35.3972 102.373 35.8003V38.9798H101.182V35.9824C101.182 35.6465 101.094 35.3853 100.918 35.1989C100.744 35.0103 100.501 34.916 100.187 34.916C99.9765 34.916 99.7873 34.9616 99.6204 35.0526C99.4563 35.1414 99.3265 35.2704 99.2319 35.4395C99.1401 35.6085 99.0938 35.8134 99.0938 36.0539ZM103.217 38.9798V33.9863H104.409V38.9798H103.217ZM103.817 33.2776C103.628 33.2776 103.465 33.2158 103.329 33.0922C103.193 32.9665 103.125 32.816 103.125 32.6404C103.125 32.4627 103.193 32.3121 103.329 32.1885C103.465 32.0628 103.628 32 103.817 32C104.008 32 104.17 32.0628 104.304 32.1885C104.44 32.3121 104.508 32.4627 104.508 32.6404C104.508 32.816 104.44 32.9665 104.304 33.0922C104.17 33.2158 104.008 33.2776 103.817 33.2776Z" fill="#0FA958"/>
<path d="M18 1C27.3888 1 35 8.61116 35 18C35 27.3888 27.3888 35 18 35C8.61116 35 1 27.3888 1 18C1 8.61116 8.61116 1 18 1Z" stroke="#0FA958" stroke-width="2"/>
<path d="M32 18C32 10.268 25.732 4 18 4C10.268 4 4 10.268 4 18C4 25.732 10.268 32 18 32C25.732 32 32 25.732 32 18Z" fill="#0FA958"/>
<path d="M12.5675 19.7053C12.5675 20.0274 12.6244 20.3301 12.7383 20.6135C12.8521 20.8841 13.0039 21.1224 13.1937 21.3285C13.3961 21.5346 13.6301 21.6957 13.8958 21.8116C14.1741 21.9275 14.4714 21.9855 14.7877 21.9855C15.0913 21.9855 15.3759 21.9275 15.6416 21.8116C15.9199 21.6957 16.1539 21.5346 16.3437 21.3285C16.5461 21.1224 16.7042 20.8841 16.8181 20.6135C16.9446 20.343 17.0078 20.0531 17.0078 19.744C17.0078 19.4348 16.9446 19.1449 16.8181 18.8744C16.7042 18.591 16.5461 18.3462 16.3437 18.1401C16.1539 17.934 15.9199 17.7729 15.6416 17.657C15.3759 17.5411 15.0913 17.4831 14.7877 17.4831C14.4714 17.4831 14.1741 17.5411 13.8958 17.657C13.6301 17.7729 13.3961 17.934 13.1937 18.1401C13.0039 18.3462 12.8521 18.5845 12.7383 18.8551C12.6244 19.1127 12.5675 19.3961 12.5675 19.7053ZM16.894 14.7778H20.3476V24.6908H16.894V23.5894C16.1603 24.5298 15.1672 25 13.9148 25C13.2063 25 12.5548 24.8712 11.9602 24.6135C11.3657 24.343 10.847 23.9694 10.4042 23.4928C9.96145 23.0161 9.61356 22.4557 9.36054 21.8116C9.12018 21.1675 9 20.4654 9 19.7053C9 18.9968 9.12018 18.3269 9.36054 17.6957C9.6009 17.0515 9.93615 16.4911 10.3663 16.0145C10.7964 15.5378 11.3087 15.1643 11.9033 14.8937C12.4979 14.6103 13.1557 14.4686 13.8768 14.4686C15.0913 14.4686 16.097 14.9002 16.894 15.7633V14.7778ZM24.7913 14.7778V24.6908H21.3566V14.7778H24.7913ZM21.1289 10.971C21.1289 10.7005 21.1795 10.4493 21.2807 10.2174C21.3819 9.97262 21.5211 9.76006 21.6982 9.57971C21.8753 9.39936 22.0777 9.25765 22.3054 9.15459C22.5458 9.05153 22.7988 9 23.0645 9C23.3301 9 23.5768 9.05153 23.8045 9.15459C24.0449 9.25765 24.2536 9.39936 24.4307 9.57971C24.6078 9.76006 24.747 9.97262 24.8482 10.2174C24.9494 10.4493 25 10.7005 25 10.971C25 11.2415 24.9494 11.4992 24.8482 11.744C24.747 11.9758 24.6078 12.182 24.4307 12.3623C24.2536 12.5427 24.0449 12.6844 23.8045 12.7874C23.5768 12.8905 23.3301 12.942 23.0645 12.942C22.7988 12.942 22.5458 12.8905 22.3054 12.7874C22.0777 12.6844 21.8753 12.5427 21.6982 12.3623C21.5211 12.182 21.3819 11.9758 21.2807 11.744C21.1795 11.4992 21.1289 11.2415 21.1289 10.971Z" fill="white"/>
</svg>
