<svg width="105" height="41" viewBox="0 0 105 41" fill="none" xmlns="http://www.w3.org/2000/svg">
<path d="M48.0896 19.2259C48.0896 18.8886 48.0229 18.5723 47.8895 18.2771C47.771 17.9679 47.5932 17.7008 47.3562 17.4759C47.1191 17.251 46.8376 17.0753 46.5117 16.9488C46.2005 16.8082 45.8598 16.738 45.4894 16.738C45.1338 16.738 44.8004 16.8012 44.4893 16.9277C44.1782 17.0542 43.9041 17.2299 43.667 17.4548C43.4448 17.6797 43.2596 17.9468 43.1114 18.256C42.9781 18.5512 42.9114 18.8675 42.9114 19.2048C42.9114 19.5422 42.9781 19.8584 43.1114 20.1536C43.2448 20.4488 43.43 20.7088 43.667 20.9337C43.9041 21.1446 44.1782 21.3203 44.4893 21.4608C44.8152 21.5874 45.156 21.6506 45.5116 21.6506C45.8672 21.6506 46.2005 21.5874 46.5117 21.4608C46.8228 21.3343 47.0895 21.1586 47.3117 20.9337C47.5488 20.7088 47.734 20.4488 47.8673 20.1536C48.0155 19.8584 48.0896 19.5492 48.0896 19.2259ZM43.0225 30H39V13.7861H43.0225V14.988C43.8818 13.9618 45.0523 13.4488 46.5339 13.4488C47.3488 13.4488 48.1044 13.6034 48.8007 13.9127C49.5119 14.2078 50.1267 14.6155 50.6453 15.1355C51.1638 15.6556 51.5639 16.2671 51.8454 16.9699C52.1417 17.6727 52.2899 18.4247 52.2899 19.2259C52.2899 20.0271 52.1417 20.7721 51.8454 21.4608C51.5639 22.1496 51.1638 22.754 50.6453 23.2741C50.1416 23.7942 49.5415 24.2018 48.8452 24.497C48.1488 24.7922 47.3932 24.9398 46.5783 24.9398C45.156 24.9398 43.9707 24.4759 43.0225 23.5482V30ZM53.027 24.6024H56.8273V9H53.027V24.6024ZM61.7593 19.1627C61.7593 19.5141 61.8259 19.8444 61.9593 20.1536C62.0926 20.4488 62.2704 20.7088 62.4926 20.9337C62.7297 21.1586 63.0038 21.3343 63.3149 21.4608C63.6409 21.5874 63.989 21.6506 64.3594 21.6506C64.715 21.6506 65.0484 21.5874 65.3595 21.4608C65.6855 21.3343 65.9596 21.1586 66.1818 20.9337C66.4188 20.7088 66.604 20.4488 66.7373 20.1536C66.8855 19.8584 66.9596 19.5422 66.9596 19.2048C66.9596 18.8675 66.8855 18.5512 66.7373 18.256C66.604 17.9468 66.4188 17.6797 66.1818 17.4548C65.9596 17.2299 65.6855 17.0542 65.3595 16.9277C65.0484 16.8012 64.715 16.738 64.3594 16.738C63.989 16.738 63.6409 16.8012 63.3149 16.9277C63.0038 17.0542 62.7297 17.2299 62.4926 17.4548C62.2704 17.6797 62.0926 17.9398 61.9593 18.2349C61.8259 18.5161 61.7593 18.8253 61.7593 19.1627ZM66.8262 13.7861H70.871V24.6024H66.8262V23.4006C65.967 24.4267 64.8039 24.9398 63.3371 24.9398C62.5075 24.9398 61.7444 24.7992 61.0481 24.5181C60.3517 24.2229 59.7443 23.8153 59.2257 23.2952C58.7072 22.7751 58.2997 22.1637 58.0034 21.4608C57.7219 20.758 57.5812 19.992 57.5812 19.1627C57.5812 18.3896 57.7219 17.6586 58.0034 16.9699C58.2849 16.2671 58.6775 15.6556 59.1813 15.1355C59.685 14.6155 60.2851 14.2078 60.9814 13.9127C61.6778 13.6034 62.4482 13.4488 63.2927 13.4488C64.715 13.4488 65.8929 13.9197 66.8262 14.8614V13.7861ZM72.0525 13.7861H76.0751V15.1566C76.6232 14.5241 77.1788 14.1024 77.7418 13.8916C78.3048 13.6667 78.9642 13.5542 79.7198 13.5542C80.5198 13.5542 81.2014 13.6807 81.7644 13.9337C82.3422 14.1727 82.8311 14.5171 83.2311 14.9669C83.5571 15.3323 83.7793 15.74 83.8978 16.1898C84.0164 16.6396 84.0756 17.1526 84.0756 17.7289V24.6024H80.0531V19.1416C80.0531 18.6074 80.0087 18.1787 79.9198 17.8554C79.8457 17.5181 79.7049 17.251 79.4975 17.0542C79.3197 16.8855 79.1197 16.7661 78.8975 16.6958C78.6752 16.6255 78.4382 16.5904 78.1863 16.5904C77.5048 16.5904 76.9788 16.7871 76.6084 17.1807C76.2528 17.5602 76.0751 18.1084 76.0751 18.8253V24.6024H72.0525V13.7861ZM93.5893 17.6235C93.456 17.0894 93.1819 16.6606 92.767 16.3373C92.3522 16.0141 91.8484 15.8524 91.2558 15.8524C90.6335 15.8524 90.1224 16.007 89.7223 16.3163C89.3371 16.6255 89.0927 17.0612 88.989 17.6235H93.5893ZM88.8778 19.8373C88.8778 21.4819 89.6927 22.3042 91.3225 22.3042C92.1966 22.3042 92.8559 21.9669 93.3004 21.2922H97.1896C96.4043 23.7661 94.4412 25.003 91.3002 25.003C90.3372 25.003 89.4557 24.8695 88.6556 24.6024C87.8555 24.3213 87.1666 23.9277 86.5888 23.4217C86.0258 22.9157 85.5887 22.3112 85.2776 21.6084C84.9664 20.9056 84.8109 20.1185 84.8109 19.247C84.8109 18.3474 84.959 17.5392 85.2554 16.8223C85.5517 16.0914 85.9739 15.4729 86.5221 14.9669C87.0703 14.4608 87.7296 14.0743 88.5 13.8072C89.2853 13.5261 90.1668 13.3855 91.1447 13.3855C92.1077 13.3855 92.9744 13.5261 93.7449 13.8072C94.5153 14.0743 95.1672 14.4679 95.7006 14.988C96.2339 15.508 96.6414 16.1476 96.9229 16.9066C97.2044 17.6516 97.3451 18.495 97.3451 19.4367V19.8373H88.8778ZM98.6884 20.512C98.6884 23.5693 100.489 24.6024 103.067 24.6024H105V21.5452H103.644C102.8 21.5452 102.489 21.25 102.489 20.5542V15.8313H104.978V12.8373H102.489V9.96988H98.6884V12.8373H97.1772V15.8313H98.6884V20.512Z" fill="black"/>
<path d="M52.8124 33.9873V34.6375H50.0859V33.9873H52.8124ZM50.9025 38.9808V33.2982C50.9025 33.0121 50.9706 32.7737 51.1066 32.5829C51.2427 32.3922 51.4194 32.2491 51.6368 32.1538C51.8541 32.0584 52.0834 32.0107 52.3249 32.0107C52.5157 32.0107 52.6715 32.0259 52.792 32.0562C52.9135 32.0866 53.0034 32.1148 53.0628 32.1408L52.8384 32.804C52.7995 32.791 52.7438 32.7747 52.6743 32.7552C52.6057 32.7357 52.5157 32.726 52.4036 32.726C52.1471 32.726 51.9617 32.7899 51.8474 32.9178C51.7355 33.0457 51.6795 33.2331 51.6795 33.4802V38.9808H50.9025ZM55.3771 39.0848C54.92 39.0848 54.5194 38.9775 54.1745 38.7629C53.8324 38.5484 53.5644 38.2483 53.3715 37.8625C53.1805 37.4767 53.085 37.0258 53.085 36.5101C53.085 35.9899 53.1805 35.5358 53.3715 35.148C53.5644 34.76 53.8324 34.4587 54.1745 34.2442C54.5194 34.0296 54.92 33.9223 55.3771 33.9223C55.8332 33.9223 56.2329 34.0296 56.575 34.2442C56.9199 34.4587 57.1879 34.76 57.3789 35.148C57.5717 35.5358 57.6681 35.9899 57.6681 36.5101C57.6681 37.0258 57.5717 37.4767 57.3789 37.8625C57.1879 38.2483 56.9199 38.5484 56.575 38.7629C56.2329 38.9775 55.8332 39.0848 55.3771 39.0848ZM55.3771 38.3957C55.7238 38.3957 56.0085 38.3079 56.2329 38.1323C56.4563 37.9567 56.6223 37.7259 56.7298 37.4398C56.8374 37.1537 56.8912 36.8438 56.8912 36.5101C56.8912 36.1763 56.8374 35.8653 56.7298 35.577C56.6223 35.2888 56.4563 35.0559 56.2329 34.8781C56.0085 34.7004 55.7238 34.6115 55.3771 34.6115C55.0303 34.6115 54.7447 34.7004 54.5203 34.8781C54.2969 35.0559 54.1309 35.2888 54.0234 35.577C53.9158 35.8653 53.862 36.1763 53.862 36.5101C53.862 36.8438 53.9158 37.1537 54.0234 37.4398C54.1309 37.7259 54.2969 37.9567 54.5203 38.1323C54.7447 38.3079 55.0303 38.3957 55.3771 38.3957ZM58.4832 38.9808V33.9873H59.2342V34.7416H59.287C59.3788 34.4945 59.5457 34.294 59.7877 34.1401C60.0288 33.9862 60.3014 33.9093 60.6036 33.9093C60.6611 33.9093 60.7325 33.9104 60.8178 33.9125C60.904 33.9147 60.968 33.918 61.0125 33.9223V34.7026C60.9856 34.6961 60.9254 34.6863 60.8308 34.6733C60.739 34.6581 60.6417 34.6505 60.5378 34.6505C60.2921 34.6505 60.0724 34.7015 59.8795 34.8033C59.6885 34.903 59.5374 35.0418 59.4252 35.2194C59.3158 35.395 59.2611 35.5954 59.2611 35.8209V38.9808H58.4832ZM61.5624 38.9808V33.9873H62.3134V34.7676H62.3792C62.484 34.501 62.6546 34.294 62.8892 34.1466C63.1247 33.9971 63.4065 33.9223 63.7357 33.9223C64.0695 33.9223 64.3467 33.9971 64.5683 34.1466C64.7927 34.294 64.967 34.501 65.0922 34.7676H65.145C65.2739 34.5097 65.4686 34.3048 65.7273 34.1531C65.9869 33.9992 66.2975 33.9223 66.6591 33.9223C67.1116 33.9223 67.4816 34.0621 67.769 34.3417C68.0564 34.6191 68.2001 35.0515 68.2001 35.6388V38.9808H67.4231V35.6388C67.4231 35.2703 67.3211 35.0071 67.1172 34.8489C66.9132 34.6906 66.673 34.6115 66.3958 34.6115C66.0407 34.6115 65.7653 34.7177 65.5697 34.9301C65.374 35.1403 65.2767 35.4069 65.2767 35.7298V38.9808H64.4867V35.5608C64.4867 35.2768 64.3931 35.0483 64.2067 34.8749C64.0194 34.6993 63.7793 34.6115 63.4854 34.6115C63.2832 34.6115 63.095 34.6646 62.9188 34.7708C62.7455 34.877 62.6054 35.0244 62.4979 35.2129C62.3922 35.3993 62.3393 35.6149 62.3393 35.8599V38.9808H61.5624ZM71.3702 39.0848C70.8834 39.0848 70.4634 38.9786 70.1092 38.7662C69.7587 38.5516 69.4871 38.2526 69.2961 37.869C69.1078 37.4832 69.0133 37.0345 69.0133 36.5231C69.0133 36.0116 69.1078 35.5608 69.2961 35.1707C69.4871 34.7784 69.7532 34.4728 70.0935 34.2539C70.4356 34.0328 70.8352 33.9223 71.2914 33.9223C71.5547 33.9223 71.8153 33.9656 72.0721 34.0523C72.3289 34.139 72.5626 34.2799 72.773 34.475C72.9844 34.6679 73.1523 34.9236 73.2774 35.2422C73.4026 35.5608 73.4647 35.9531 73.4647 36.4191V36.7442H69.5659V36.0809H72.6748C72.6748 35.7992 72.6173 35.5478 72.5032 35.3267C72.391 35.1057 72.2316 34.9312 72.0229 34.8033C71.8162 34.6755 71.5723 34.6115 71.2914 34.6115C70.9817 34.6115 70.7147 34.6874 70.4884 34.8391C70.2641 34.9887 70.0916 35.1837 69.9711 35.4242C69.8505 35.6648 69.7903 35.9227 69.7903 36.198V36.6401C69.7903 37.0172 69.8561 37.3369 69.9878 37.5991C70.1213 37.8592 70.3067 38.0575 70.5441 38.1941C70.7814 38.3285 71.0568 38.3957 71.3702 38.3957C71.5751 38.3957 71.7596 38.3675 71.9237 38.3111C72.0906 38.2526 72.2343 38.1659 72.3549 38.051C72.4754 37.934 72.5691 37.7888 72.6349 37.6154L73.3859 37.8235C73.3071 38.0749 73.1736 38.296 72.9872 38.4866C72.8009 38.6752 72.57 38.8225 72.2955 38.9287C72.0211 39.0328 71.7133 39.0848 71.3702 39.0848ZM74.276 38.9808V33.9873H75.027V34.7416H75.079C75.1717 34.4945 75.3386 34.294 75.5796 34.1401C75.8216 33.9862 76.0933 33.9093 76.3965 33.9093C76.4531 33.9093 76.5245 33.9104 76.6107 33.9125C76.696 33.9147 76.7609 33.918 76.8045 33.9223V34.7026C76.7785 34.6961 76.7182 34.6863 76.6237 34.6733C76.5309 34.6581 76.4336 34.6505 76.3307 34.6505C76.085 34.6505 75.8652 34.7015 75.6724 34.8033C75.4814 34.903 75.3293 35.0418 75.218 35.2194C75.1077 35.395 75.053 35.5954 75.053 35.8209V38.9808H74.276ZM78.1322 32.3228V38.9808H77.3552V32.3228H78.1322ZM79.6843 40.8533C79.5527 40.8533 79.4358 40.8425 79.332 40.8208C79.2291 40.8013 79.1577 40.7818 79.1187 40.7623L79.3162 40.0861C79.5045 40.1338 79.6714 40.1511 79.816 40.1381C79.9616 40.1251 80.0895 40.0612 80.2017 39.9463C80.3158 39.8336 80.4196 39.6505 80.5142 39.3969L80.6597 39.0068L78.7887 33.9873H79.6324L81.0278 37.9665H81.0807L82.477 33.9873H83.3199L81.1734 39.709C81.076 39.9669 80.9564 40.1803 80.8136 40.3494C80.6718 40.5206 80.5058 40.6474 80.3167 40.7298C80.1303 40.8121 79.9198 40.8533 79.6843 40.8533Z" fill="#666666"/>
<path d="M88.2953 38.9798H86.0107V32.3218H88.3417C89.0111 32.3218 89.586 32.4551 90.0672 32.7217C90.5503 32.986 90.9212 33.3664 91.1798 33.8628C91.4385 34.3591 91.5683 34.9529 91.5683 35.6443C91.5683 36.3378 91.4376 36.9338 91.1771 37.4323C90.9175 37.9307 90.5438 38.3133 90.0542 38.5799C89.5665 38.8465 88.9805 38.9798 88.2953 38.9798ZM87.2319 37.9361H88.236C88.7061 37.9361 89.0983 37.8516 89.4117 37.6827C89.726 37.5114 89.9615 37.2568 90.1201 36.9186C90.2777 36.5784 90.3565 36.1536 90.3565 35.6443C90.3565 35.1349 90.2777 34.7123 90.1201 34.3764C89.9615 34.0383 89.7279 33.7858 89.4182 33.6189C89.1113 33.4499 88.7293 33.3653 88.2722 33.3653H87.2319V37.9361ZM92.3583 38.9798V32.3218H94.8868C95.4051 32.3218 95.8399 32.4172 96.1904 32.6079C96.5446 32.7986 96.8107 33.0608 96.9906 33.3946C97.1732 33.7262 97.2641 34.1034 97.2641 34.5259C97.2641 34.9529 97.1732 35.3322 96.9906 35.6638C96.8088 35.9954 96.5399 36.2565 96.1839 36.4472C95.8288 36.6358 95.3902 36.7301 94.8701 36.7301H93.1946V35.7386H94.706C95.0092 35.7386 95.2567 35.6866 95.4496 35.5825C95.6434 35.4785 95.7861 35.3354 95.8779 35.1534C95.9725 34.9713 96.0198 34.7622 96.0198 34.5259C96.0198 34.2898 95.9725 34.0817 95.8779 33.9018C95.7861 33.7219 95.6424 33.5821 95.4468 33.4824C95.2539 33.3805 95.0045 33.3296 94.6995 33.3296H93.5794V38.9798H92.3583ZM99.0934 36.0539V38.9798H97.902V32.3218H99.0675V34.8348H99.1268C99.2446 34.553 99.4281 34.3309 99.6766 34.1684C99.927 34.0037 100.245 33.9213 100.632 33.9213C100.982 33.9213 101.289 33.9939 101.55 34.1391C101.811 34.2843 102.013 34.4967 102.156 34.7762C102.301 35.0558 102.373 35.3972 102.373 35.8003V38.9798H101.181V35.9824C101.181 35.6465 101.093 35.3853 100.917 35.1989C100.744 35.0103 100.501 34.916 100.187 34.916C99.9761 34.916 99.787 34.9616 99.6201 35.0526C99.456 35.1414 99.3262 35.2704 99.2316 35.4395C99.1398 35.6085 99.0934 35.8134 99.0934 36.0539ZM103.217 38.9798V33.9863H104.409V38.9798H103.217ZM103.817 33.2776C103.627 33.2776 103.465 33.2158 103.329 33.0922C103.193 32.9665 103.125 32.816 103.125 32.6404C103.125 32.4627 103.193 32.3121 103.329 32.1885C103.465 32.0628 103.627 32 103.817 32C104.008 32 104.17 32.0628 104.303 32.1885C104.44 32.3121 104.507 32.4627 104.507 32.6404C104.507 32.816 104.44 32.9665 104.303 33.0922C104.17 33.2158 104.008 33.2776 103.817 33.2776Z" fill="#0FA958"/>
<path d="M18 1C27.3888 1 35 8.61116 35 18C35 27.3888 27.3888 35 18 35C8.61116 35 1 27.3888 1 18C1 8.61116 8.61116 1 18 1Z" stroke="#0FA958" stroke-width="2"/>
<path d="M32 18C32 10.268 25.732 4 18 4C10.268 4 4 10.268 4 18C4 25.732 10.268 32 18 32C25.732 32 32 25.732 32 18Z" fill="#0FA958"/>
<path d="M12.5675 19.7053C12.5675 20.0274 12.6244 20.3301 12.7383 20.6135C12.8521 20.8841 13.0039 21.1224 13.1937 21.3285C13.3961 21.5346 13.6301 21.6957 13.8958 21.8116C14.1741 21.9275 14.4714 21.9855 14.7877 21.9855C15.0913 21.9855 15.3759 21.9275 15.6416 21.8116C15.9199 21.6957 16.1539 21.5346 16.3437 21.3285C16.5461 21.1224 16.7042 20.8841 16.8181 20.6135C16.9446 20.343 17.0078 20.0531 17.0078 19.744C17.0078 19.4348 16.9446 19.1449 16.8181 18.8744C16.7042 18.591 16.5461 18.3462 16.3437 18.1401C16.1539 17.934 15.9199 17.7729 15.6416 17.657C15.3759 17.5411 15.0913 17.4831 14.7877 17.4831C14.4714 17.4831 14.1741 17.5411 13.8958 17.657C13.6301 17.7729 13.3961 17.934 13.1937 18.1401C13.0039 18.3462 12.8521 18.5845 12.7383 18.8551C12.6244 19.1127 12.5675 19.3961 12.5675 19.7053ZM16.894 14.7778H20.3476V24.6908H16.894V23.5894C16.1603 24.5298 15.1672 25 13.9148 25C13.2063 25 12.5548 24.8712 11.9602 24.6135C11.3657 24.343 10.847 23.9694 10.4042 23.4928C9.96145 23.0161 9.61356 22.4557 9.36054 21.8116C9.12018 21.1675 9 20.4654 9 19.7053C9 18.9968 9.12018 18.3269 9.36054 17.6957C9.6009 17.0515 9.93615 16.4911 10.3663 16.0145C10.7964 15.5378 11.3087 15.1643 11.9033 14.8937C12.4979 14.6103 13.1557 14.4686 13.8768 14.4686C15.0913 14.4686 16.097 14.9002 16.894 15.7633V14.7778ZM24.7913 14.7778V24.6908H21.3566V14.7778H24.7913ZM21.1289 10.971C21.1289 10.7005 21.1795 10.4493 21.2807 10.2174C21.3819 9.97262 21.5211 9.76006 21.6982 9.57971C21.8753 9.39936 22.0777 9.25765 22.3054 9.15459C22.5458 9.05153 22.7988 9 23.0645 9C23.3301 9 23.5768 9.05153 23.8045 9.15459C24.0449 9.25765 24.2536 9.39936 24.4307 9.57971C24.6078 9.76006 24.747 9.97262 24.8482 10.2174C24.9494 10.4493 25 10.7005 25 10.971C25 11.2415 24.9494 11.4992 24.8482 11.744C24.747 11.9758 24.6078 12.182 24.4307 12.3623C24.2536 12.5427 24.0449 12.6844 23.8045 12.7874C23.5768 12.8905 23.3301 12.942 23.0645 12.942C22.7988 12.942 22.5458 12.8905 22.3054 12.7874C22.0777 12.6844 21.8753 12.5427 21.6982 12.3623C21.5211 12.182 21.3819 11.9758 21.2807 11.744C21.1795 11.4992 21.1289 11.2415 21.1289 10.971Z" fill="white"/>
</svg>
