<svg width="16" height="17" viewBox="0 0 16 17" fill="none" xmlns="http://www.w3.org/2000/svg">
<path d="M13.3335 2.50033H12.6668V1.83366C12.6668 1.46699 12.3668 1.16699 12.0002 1.16699C11.6335 1.16699 11.3335 1.46699 11.3335 1.83366V2.50033H4.66683V1.83366C4.66683 1.46699 4.36683 1.16699 4.00016 1.16699C3.6335 1.16699 3.3335 1.46699 3.3335 1.83366V2.50033H2.66683C1.9335 2.50033 1.3335 3.10033 1.3335 3.83366V14.5003C1.3335 15.2337 1.9335 15.8337 2.66683 15.8337H13.3335C14.0668 15.8337 14.6668 15.2337 14.6668 14.5003V3.83366C14.6668 3.10033 14.0668 2.50033 13.3335 2.50033ZM12.6668 14.5003H3.3335C2.96683 14.5003 2.66683 14.2003 2.66683 13.8337V5.83366H13.3335V13.8337C13.3335 14.2003 13.0335 14.5003 12.6668 14.5003Z" fill="#F5F5F5"/>
</svg>
