<svg width="16" height="17" viewBox="0 0 16 17" fill="none" xmlns="http://www.w3.org/2000/svg">
<path d="M13.3333 2.49984H12.6667V1.83317C12.6667 1.4665 12.3667 1.1665 12 1.1665C11.6333 1.1665 11.3333 1.4665 11.3333 1.83317V2.49984H4.66668V1.83317C4.66668 1.4665 4.36668 1.1665 4.00001 1.1665C3.63334 1.1665 3.33334 1.4665 3.33334 1.83317V2.49984H2.66668C1.93334 2.49984 1.33334 3.09984 1.33334 3.83317V14.4998C1.33334 15.2332 1.93334 15.8332 2.66668 15.8332H13.3333C14.0667 15.8332 14.6667 15.2332 14.6667 14.4998V3.83317C14.6667 3.09984 14.0667 2.49984 13.3333 2.49984ZM12.6667 14.4998H3.33334C2.96668 14.4998 2.66668 14.1998 2.66668 13.8332V5.83317H13.3333V13.8332C13.3333 14.1998 13.0333 14.4998 12.6667 14.4998Z" fill="#F5F5F5"/>
</svg>
