<svg width="18" height="19" viewBox="0 0 18 19" fill="none" xmlns="http://www.w3.org/2000/svg">
<path d="M15 2.75H14.25V2C14.25 1.5875 13.9125 1.25 13.5 1.25C13.0875 1.25 12.75 1.5875 12.75 2V2.75H5.25V2C5.25 1.5875 4.9125 1.25 4.5 1.25C4.0875 1.25 3.75 1.5875 3.75 2V2.75H3C2.175 2.75 1.5 3.425 1.5 4.25V16.25C1.5 17.075 2.175 17.75 3 17.75H15C15.825 17.75 16.5 17.075 16.5 16.25V4.25C16.5 3.425 15.825 2.75 15 2.75ZM14.25 16.25H3.75C3.3375 16.25 3 15.9125 3 15.5V6.5H15V15.5C15 15.9125 14.6625 16.25 14.25 16.25Z" fill="#858585"/>
</svg>
