<svg width="16" height="17" viewBox="0 0 16 17" fill="none" xmlns="http://www.w3.org/2000/svg">
<path d="M13.3333 2.49984H12.6666V1.83317C12.6666 1.4665 12.3666 1.1665 11.9999 1.1665C11.6333 1.1665 11.3333 1.4665 11.3333 1.83317V2.49984H4.66659V1.83317C4.66659 1.4665 4.36659 1.1665 3.99992 1.1665C3.63325 1.1665 3.33325 1.4665 3.33325 1.83317V2.49984H2.66659C1.93325 2.49984 1.33325 3.09984 1.33325 3.83317V14.4998C1.33325 15.2332 1.93325 15.8332 2.66659 15.8332H13.3333C14.0666 15.8332 14.6666 15.2332 14.6666 14.4998V3.83317C14.6666 3.09984 14.0666 2.49984 13.3333 2.49984ZM12.6666 14.4998H3.33325C2.96659 14.4998 2.66659 14.1998 2.66659 13.8332V5.83317H13.3333V13.8332C13.3333 14.1998 13.0333 14.4998 12.6666 14.4998Z" fill="#F5F5F5"/>
</svg>
