<svg width="16" height="17" viewBox="0 0 16 17" fill="none" xmlns="http://www.w3.org/2000/svg">
<path d="M7.33325 6.49967H8.66658V5.16634H7.33325V6.49967ZM7.99992 13.833C5.05992 13.833 2.66659 11.4397 2.66659 8.49967C2.66659 5.55967 5.05992 3.16634 7.99992 3.16634C10.9399 3.16634 13.3333 5.55967 13.3333 8.49967C13.3333 11.4397 10.9399 13.833 7.99992 13.833ZM7.99992 1.83301C7.12444 1.83301 6.25753 2.00545 5.4487 2.34048C4.63986 2.67551 3.90493 3.16657 3.28587 3.78563C2.03563 5.03587 1.33325 6.73156 1.33325 8.49967C1.33325 10.2678 2.03563 11.9635 3.28587 13.2137C3.90493 13.8328 4.63986 14.3238 5.4487 14.6589C6.25753 14.9939 7.12444 15.1663 7.99992 15.1663C9.76803 15.1663 11.4637 14.464 12.714 13.2137C13.9642 11.9635 14.6666 10.2678 14.6666 8.49967C14.6666 7.6242 14.4941 6.75729 14.1591 5.94845C13.8241 5.13961 13.333 4.40469 12.714 3.78563C12.0949 3.16657 11.36 2.67551 10.5511 2.34048C9.7423 2.00545 8.8754 1.83301 7.99992 1.83301ZM7.33325 11.833H8.66658V7.83301H7.33325V11.833Z" fill="#828282"/>
</svg>
