<svg width="18" height="19" viewBox="0 0 18 19" fill="none" xmlns="http://www.w3.org/2000/svg">
<path d="M8.25 7.25H9.75V5.75H8.25V7.25ZM9 15.5C5.6925 15.5 3 12.8075 3 9.5C3 6.1925 5.6925 3.5 9 3.5C12.3075 3.5 15 6.1925 15 9.5C15 12.8075 12.3075 15.5 9 15.5ZM9 2C8.01509 2 7.03982 2.19399 6.12987 2.5709C5.21993 2.94781 4.39314 3.50026 3.6967 4.1967C2.29018 5.60322 1.5 7.51088 1.5 9.5C1.5 11.4891 2.29018 13.3968 3.6967 14.8033C4.39314 15.4997 5.21993 16.0522 6.12987 16.4291C7.03982 16.806 8.01509 17 9 17C10.9891 17 12.8968 16.2098 14.3033 14.8033C15.7098 13.3968 16.5 11.4891 16.5 9.5C16.5 8.51509 16.306 7.53982 15.9291 6.62987C15.5522 5.71993 14.9997 4.89314 14.3033 4.1967C13.6069 3.50026 12.7801 2.94781 11.8701 2.5709C10.9602 2.19399 9.98491 2 9 2ZM8.25 13.25H9.75V8.75H8.25V13.25Z" fill="#828282"/>
</svg>
