<svg width="16" height="17" viewBox="0 0 16 17" fill="none" xmlns="http://www.w3.org/2000/svg">
<path d="M7.3335 6.49967H8.66683V5.16634H7.3335V6.49967ZM8.00016 13.833C5.06016 13.833 2.66683 11.4397 2.66683 8.49967C2.66683 5.55967 5.06016 3.16634 8.00016 3.16634C10.9402 3.16634 13.3335 5.55967 13.3335 8.49967C13.3335 11.4397 10.9402 13.833 8.00016 13.833ZM8.00016 1.83301C7.12468 1.83301 6.25778 2.00545 5.44894 2.34048C4.6401 2.67551 3.90517 3.16657 3.28612 3.78563C2.03587 5.03587 1.3335 6.73156 1.3335 8.49967C1.3335 10.2678 2.03587 11.9635 3.28612 13.2137C3.90517 13.8328 4.6401 14.3238 5.44894 14.6589C6.25778 14.9939 7.12468 15.1663 8.00016 15.1663C9.76827 15.1663 11.464 14.464 12.7142 13.2137C13.9644 11.9635 14.6668 10.2678 14.6668 8.49967C14.6668 7.6242 14.4944 6.75729 14.1594 5.94845C13.8243 5.13961 13.3333 4.40469 12.7142 3.78563C12.0951 3.16657 11.3602 2.67551 10.5514 2.34048C9.74255 2.00545 8.87564 1.83301 8.00016 1.83301ZM7.3335 11.833H8.66683V7.83301H7.3335V11.833Z" fill="#828282"/>
</svg>
