<svg width="16" height="17" viewBox="0 0 16 17" fill="none" xmlns="http://www.w3.org/2000/svg">
<path d="M7.33334 6.49967H8.66668V5.16634H7.33334V6.49967ZM8.00001 13.833C5.06001 13.833 2.66668 11.4397 2.66668 8.49967C2.66668 5.55967 5.06001 3.16634 8.00001 3.16634C10.94 3.16634 13.3333 5.55967 13.3333 8.49967C13.3333 11.4397 10.94 13.833 8.00001 13.833ZM8.00001 1.83301C7.12453 1.83301 6.25762 2.00545 5.44879 2.34048C4.63995 2.67551 3.90502 3.16657 3.28596 3.78563C2.03572 5.03587 1.33334 6.73156 1.33334 8.49967C1.33334 10.2678 2.03572 11.9635 3.28596 13.2137C3.90502 13.8328 4.63995 14.3238 5.44879 14.6589C6.25762 14.9939 7.12453 15.1663 8.00001 15.1663C9.76812 15.1663 11.4638 14.464 12.7141 13.2137C13.9643 11.9635 14.6667 10.2678 14.6667 8.49967C14.6667 7.6242 14.4942 6.75729 14.1592 5.94845C13.8242 5.13961 13.3331 4.40469 12.7141 3.78563C12.095 3.16657 11.3601 2.67551 10.5512 2.34048C9.7424 2.00545 8.87549 1.83301 8.00001 1.83301ZM7.33334 11.833H8.66668V7.83301H7.33334V11.833Z" fill="#828282"/>
</svg>
