<svg width="16" height="17" viewBox="0 0 16 17" fill="none" xmlns="http://www.w3.org/2000/svg">
<path d="M7.99984 3.5C4.6665 3.5 1.81984 5.57333 0.666504 8.5C1.81984 11.4267 4.6665 13.5 7.99984 13.5C11.3332 13.5 14.1798 11.4267 15.3332 8.5C14.1798 5.57333 11.3332 3.5 7.99984 3.5ZM7.99984 11.8333C6.15984 11.8333 4.6665 10.34 4.6665 8.5C4.6665 6.66 6.15984 5.16667 7.99984 5.16667C9.83984 5.16667 11.3332 6.66 11.3332 8.5C11.3332 10.34 9.83984 11.8333 7.99984 11.8333ZM7.99984 6.5C6.89317 6.5 5.99984 7.39333 5.99984 8.5C5.99984 9.60667 6.89317 10.5 7.99984 10.5C9.1065 10.5 9.99984 9.60667 9.99984 8.5C9.99984 7.39333 9.1065 6.5 7.99984 6.5Z" fill="#44924C"/>
</svg>
