<svg width="16" height="17" viewBox="0 0 16 17" fill="none" xmlns="http://www.w3.org/2000/svg">
<path d="M8 3.5C4.66666 3.5 1.82 5.57333 0.666664 8.5C1.82 11.4267 4.66666 13.5 8 13.5C11.3333 13.5 14.18 11.4267 15.3333 8.5C14.18 5.57333 11.3333 3.5 8 3.5ZM8 11.8333C6.16 11.8333 4.66666 10.34 4.66666 8.5C4.66666 6.66 6.16 5.16667 8 5.16667C9.84 5.16667 11.3333 6.66 11.3333 8.5C11.3333 10.34 9.84 11.8333 8 11.8333ZM8 6.5C6.89333 6.5 6 7.39333 6 8.5C6 9.60667 6.89333 10.5 8 10.5C9.10666 10.5 10 9.60667 10 8.5C10 7.39333 9.10666 6.5 8 6.5Z" fill="#44924C"/>
</svg>
