<svg width="16" height="17" viewBox="0 0 16 17" fill="none" xmlns="http://www.w3.org/2000/svg">
<path d="M7.99996 3.5C4.66663 3.5 1.81996 5.57333 0.666626 8.5C1.81996 11.4267 4.66663 13.5 7.99996 13.5C11.3333 13.5 14.18 11.4267 15.3333 8.5C14.18 5.57333 11.3333 3.5 7.99996 3.5ZM7.99996 11.8333C6.15996 11.8333 4.66663 10.34 4.66663 8.5C4.66663 6.66 6.15996 5.16667 7.99996 5.16667C9.83996 5.16667 11.3333 6.66 11.3333 8.5C11.3333 10.34 9.83996 11.8333 7.99996 11.8333ZM7.99996 6.5C6.89329 6.5 5.99996 7.39333 5.99996 8.5C5.99996 9.60667 6.89329 10.5 7.99996 10.5C9.10663 10.5 9.99996 9.60667 9.99996 8.5C9.99996 7.39333 9.10663 6.5 7.99996 6.5Z" fill="#44924C"/>
</svg>
