<svg width="16" height="17" viewBox="0 0 16 17" fill="none" xmlns="http://www.w3.org/2000/svg">
<path d="M7.99999 3.5C4.66666 3.5 1.81999 5.57333 0.666656 8.5C1.81999 11.4267 4.66666 13.5 7.99999 13.5C11.3333 13.5 14.18 11.4267 15.3333 8.5C14.18 5.57333 11.3333 3.5 7.99999 3.5ZM7.99999 11.8333C6.15999 11.8333 4.66666 10.34 4.66666 8.5C4.66666 6.66 6.15999 5.16667 7.99999 5.16667C9.83999 5.16667 11.3333 6.66 11.3333 8.5C11.3333 10.34 9.83999 11.8333 7.99999 11.8333ZM7.99999 6.5C6.89332 6.5 5.99999 7.39333 5.99999 8.5C5.99999 9.60667 6.89332 10.5 7.99999 10.5C9.10666 10.5 9.99999 9.60667 9.99999 8.5C9.99999 7.39333 9.10666 6.5 7.99999 6.5Z" fill="#44924C"/>
</svg>
