<svg width="16" height="17" viewBox="0 0 16 17" fill="none" xmlns="http://www.w3.org/2000/svg">
<path d="M8.00033 3.5C4.66699 3.5 1.82033 5.57333 0.666992 8.5C1.82033 11.4267 4.66699 13.5 8.00033 13.5C11.3337 13.5 14.1803 11.4267 15.3337 8.5C14.1803 5.57333 11.3337 3.5 8.00033 3.5ZM8.00033 11.8333C6.16033 11.8333 4.66699 10.34 4.66699 8.5C4.66699 6.66 6.16033 5.16667 8.00033 5.16667C9.84032 5.16667 11.3337 6.66 11.3337 8.5C11.3337 10.34 9.84032 11.8333 8.00033 11.8333ZM8.00033 6.5C6.89366 6.5 6.00033 7.39333 6.00033 8.5C6.00033 9.60667 6.89366 10.5 8.00033 10.5C9.10699 10.5 10.0003 9.60667 10.0003 8.5C10.0003 7.39333 9.10699 6.5 8.00033 6.5Z" fill="#44924C"/>
</svg>
