<svg width="24" height="25" viewBox="0 0 24 25" fill="none" xmlns="http://www.w3.org/2000/svg">
<path d="M19.6498 9.54L14.8098 9.12L12.9198 4.67C12.5798 3.86 11.4198 3.86 11.0798 4.67L9.18983 9.13L4.35983 9.54C3.47983 9.61 3.11983 10.71 3.78983 11.29L7.45983 14.47L6.35983 19.19C6.15983 20.05 7.08983 20.73 7.84983 20.27L11.9998 17.77L16.1498 20.28C16.9098 20.74 17.8398 20.06 17.6398 19.2L16.5398 14.47L20.2098 11.29C20.8798 10.71 20.5298 9.61 19.6498 9.54ZM11.9998 15.9L8.23983 18.17L9.23983 13.89L5.91983 11.01L10.2998 10.63L11.9998 6.6L13.7098 10.64L18.0898 11.02L14.7698 13.9L15.7698 18.18L11.9998 15.9Z" fill="white"/>
</svg>
