<svg width="24" height="25" viewBox="0 0 24 25" fill="none" xmlns="http://www.w3.org/2000/svg">
<path d="M19.6501 9.54L14.8101 9.12L12.9201 4.67C12.5801 3.86 11.4201 3.86 11.0801 4.67L9.19007 9.13L4.36007 9.54C3.48007 9.61 3.12007 10.71 3.79007 11.29L7.46007 14.47L6.36007 19.19C6.16007 20.05 7.09007 20.73 7.85007 20.27L12.0001 17.77L16.1501 20.28C16.9101 20.74 17.8401 20.06 17.6401 19.2L16.5401 14.47L20.2101 11.29C20.8801 10.71 20.5301 9.61 19.6501 9.54ZM12.0001 15.9L8.24007 18.17L9.24007 13.89L5.92007 11.01L10.3001 10.63L12.0001 6.6L13.7101 10.64L18.0901 11.02L14.7701 13.9L15.7701 18.18L12.0001 15.9Z" fill="white"/>
</svg>
